
<svg xmlns="http://www.w3.org/2000/svg" viewBox="0 0 550 130">
	<path fill="#fcc000" d="M175.4,120.4c-2.2-0.9-2.7-2.7-2.6-4.9c0.1-11.8,0-23.5,0-35.3v-1.4h-24c-2.1,0-3.6-1-3.9-2.9
		c-0.1-0.8,0.1-1.8,0.5-2.6c5.1-11.5,10.3-23,15.4-34.5c4-8.9,7.9-17.7,11.9-26.6c0.4-0.8,1-1.7,1.7-2.2c1.8-1.3,4.5-0.3,5.1,1.9
		c0.2,0.6,0.2,1.3,0.2,1.9v37.3h23.8c3.5,0,5,2.3,3.6,5.5l-27.3,61.2c-0.6,1.3-1.5,2.2-2.8,2.7C176.4,120.4,175.9,120.4,175.4,120.4
		L175.4,120.4z"/>
	<path fill="#ffffff" d="M137.5,33.3v11.5h-32.3v14.8h28.2v11.5h-28.2v14h32.3v11.5H92.2V33.3H137.5z M229.4,33.3l30.1,42.4V33.3h12.7
		v63.3h-12.4l-30.1-42.2v42.2H217V33.3H229.4L229.4,33.3z M298.1,33.3l30.1,42.4V33.3h12.6v63.3h-12.4l-30.1-42.2v42.2h-12.7V33.3
		H298.1z M399.5,33.3v11.5h-32.3v14.8h28.2v11.5h-28.2v14h32.3v11.5h-45.3V33.3H399.5z M464.5,44.8V33.3h52.7v11.5h-19.9v51.8h-13
		V44.8H464.5z M67.3,33.3h14.2L61.8,58.7L85,96.6H70.8L54.1,68.9l-8.5,10.8v16.9H32.7v-18L67.3,33.3z M32.7,33.3h12.9v12.2
		L32.7,62.7V33.3L32.7,33.3z M444.5,33.3h14.2L439,58.7l23.2,37.9H448l-16.7-27.7l-8.5,10.8v16.9h-12.9v-18L444.5,33.3L444.5,33.3z
		 M409.9,33.3h12.9v12.2l-12.9,17.2V33.3L409.9,33.3z"/>
</svg>
