<svg xmlns="http://www.w3.org/2000/svg" version="1.1" xmlns:xlink="http://www.w3.org/1999/xlink" xmlns:svgjs="http://svgjs.com/svgjs" width="512" height="512"><svg version="1.1" id="SvgjsSvg1000" xmlns="http://www.w3.org/2000/svg" xmlns:xlink="http://www.w3.org/1999/xlink" x="0px" y="0px" viewBox="0 0 512 512" style="enable-background:new 0 0 512 512;" xml:space="preserve">
<style type="text/css">
	.st0{fill:#FCC000;}
</style>
<path class="st0" d="M252,506c-9.8-4.3-12-12.2-11.9-22.1c0.3-53.1,0.1-106.1,0.1-159.2c0-1.9,0-3.8,0-6.2c-2.2,0-4,0-5.7,0
	c-34.1,0-68.1,0-102.2,0c-9.6,0-16.4-4.7-17.4-13c-0.4-3.8,0.6-8.1,2.2-11.7c23-51.9,46.2-103.7,69.4-155.5
	c17.9-39.9,35.7-79.9,53.7-119.8c1.7-3.7,4.3-7.5,7.6-9.8C256,2.7,268,7.3,270.7,17c0.8,2.8,0.9,5.8,0.9,8.7
	c0.1,53.9,0,107.8,0,161.6c0,1.9,0,3.8,0,6.2c2.2,0,4,0,5.8,0c33.7,0,67.5,0,101.2,0c15.6,0,22.5,10.6,16.2,24.8
	c-41.1,91.9-82.2,183.8-123.2,275.8c-2.6,5.9-6.6,10-12.7,12C256.6,506,254.3,506,252,506z"></path>
</svg><style>@media (prefers-color-scheme: light) { :root { filter: none; } }
</style></svg>